PathFileType	4	(X/Y/Z)	Patient4_TMGait_0pt6_01_right_37.trc.trc
DataRate	CameraRate	NumFrames	NumMarkers	Units	OrigDataRate	OrigDataStartFrame	OrigNumFrames
80.000000000000	80.000000000000	5	33	mm	80.000000000000	89	       141
Frame#	Time	Sacral			L.Shoulder			Chest			R.Shoulder			Neck			R.ASIS			L.ASIS			R.Thigh.Superior			R.Thigh.Lateral			R.Thigh.Inferior			R.Patella			L.Thigh.Superior			L.Thigh.Lateral			L.Thigh.Inferior			L.Patella			L.Shank.Superior			L.Shank.Lateral			L.Shank.Inferior			R.Shank.Superior			R.Shank.Lateral			R.Shank.Inferior			R.Heel			R.Midfoot.Superior			R.Midfoot.Lateral			R.Toe			L.Heel			L.Midfoot.Lateral			L.Midfoot.Superior			L.Toe			L.Elbow			L.Wrist			R.Elbow			R.Wrist			
		X1	Y1	Z1	X2	Y2	Z2	X3	Y3	Z3	X4	Y4	Z4	X5	Y5	Z5	X6	Y6	Z6	X7	Y7	Z7	X8	Y8	Z8	X9	Y9	Z9	X10	Y10	Z10	X11	Y11	Z11	X12	Y12	Z12	X13	Y13	Z13	X14	Y14	Z14	X15	Y15	Z15	X16	Y16	Z16	X17	Y17	Z17	X18	Y18	Z18	X19	Y19	Z19	X20	Y20	Z20	X21	Y21	Z21	X22	Y22	Z22	X23	Y23	Z23	X24	Y24	Z24	X25	Y25	Z25	X26	Y26	Z26	X27	Y27	Z27	X28	Y28	Z28	X29	Y29	Z29	X30	Y30	Z30	X31	Y31	Z31	X32	Y32	Z32	X33	Y33	Z33	

89	45.550000000000	741.482720949231	1011.211687107947	442.332073819008	893.344175498567	1442.506689350919	264.183940463297	1010.682618823191	1369.569329215063	413.317725659652	942.464115070286	1436.343832555364	595.109387184241	890.068583675009	1497.810054950973	419.822410346812	970.339641345254	941.661192411427	548.886963939411	946.179141658205	963.645060648441	275.176438408779	997.331607721061	733.835949811325	530.709799098122	910.770555137011	630.768104121222	596.512389172610	988.654016605501	566.173684614215	524.258076756819	973.523352481464	459.053796367312	544.692161918829	1009.298395197524	760.885774408832	307.050385531235	928.198428403524	636.608120309146	254.531900774600	1021.567618248494	567.201483749801	315.930840442206	1028.471276534518	497.541563418370	327.460508656549	1005.966274620152	424.405860602346	322.489463306265	922.913374445386	303.439466357743	278.365937359691	983.352052012311	197.591618079687	349.717101923370	895.751776644639	393.904290788190	549.421026036803	774.546089060580	353.068675794436	607.579122921188	762.411584875419	243.816658056423	556.899828509950	561.372076586928	174.501523251398	525.629714145070	729.982512854017	120.550240284959	564.851870971232	620.628785657989	111.608906288810	594.566900362306	799.985541157088	30.612161742929	581.875037290393	864.146604238937	39.000700767123	399.083349662414	935.146877355848	36.267810964834	315.767089516241	1019.466657308862	97.339001635987	338.811054742728	1146.912190388665	42.668704628077	306.038523929696	816.914910257166	1094.019226472892	154.111366202050	867.994168234575	838.092496797765	152.576552691544	1003.377070064225	1087.805502101807	699.983487017063	1237.160464312903	982.986995221667	669.984116032567	
90	45.562500000000	741.069979666491	1010.942598815226	439.880910495848	893.991882963024	1442.767361256541	262.408706140852	1010.570528635783	1369.637538889416	412.013639116195	941.394468039577	1435.930912288810	593.676102052306	889.950133350109	1497.907948373267	418.157107349502	970.025864009085	941.878219719457	546.536956034762	946.014952367717	963.737412682043	272.968922186022	1002.594031281327	735.962655078319	528.098187346151	919.942544383550	630.998254898683	594.660855577055	999.128460478732	568.008198116016	521.725153176963	985.888577058325	459.626906851327	542.728644086171	1007.998836119023	759.858891622908	304.499148420367	925.629492159184	636.353049748768	252.641359570582	1018.235691620141	566.313889960216	314.185897248010	1024.454554206307	496.671274097127	325.946596507849	1001.451883195920	423.552895893148	321.216213931684	917.423960173596	303.120559995824	277.477130584028	976.936061183000	197.051064236084	349.265428338323	906.373102012164	395.082553336016	548.131364408177	784.076321705908	358.386754754194	606.912035687902	768.341145680256	249.330196380439	557.237535571857	566.026404072223	190.172339043106	527.167819308979	730.801065939902	125.087020294395	565.638106614193	621.300813181931	123.296704843345	595.723024146969	793.999084339754	29.201022731940	582.343346126764	856.554188472914	38.902831630402	399.026704305416	927.540056205286	36.158674290962	315.681960658400	1011.929720881184	97.151966769082	338.787123144164	1139.378697847783	42.362935334069	306.012636485709	823.978437166019	1093.613897800278	149.007640213947	885.742495824376	839.867595381546	146.523127540808	994.306289669395	1085.283566950583	697.526291465475	1220.527700250158	962.971345618304	671.260066809768	
91	45.575000000000	740.530952194435	1010.598813805723	437.634146637762	894.380119093513	1442.880122648866	260.756396484090	1010.303932250571	1369.585794572628	410.754568694444	940.315005649773	1435.426964227976	592.339192140545	889.733138584054	1497.909889691218	416.586662124664	969.574082945942	941.989003883811	544.230754038126	945.674907368312	963.736682048797	270.849030144296	1007.660995006753	738.323163527972	525.306053591415	929.178778950234	631.525030844906	592.694575310279	1009.435903971156	570.287806428567	518.847338052201	998.356650892074	460.703307962277	540.323528594880	1006.653369182678	758.913124558391	302.308709568244	923.237545829260	636.101726282943	250.889003056129	1015.067214747356	565.465071909564	312.641656663239	1020.630703965490	495.792658187720	324.586189245392	997.092803487246	422.676362956407	320.071863218361	912.075340999345	302.820988481952	276.657114421834	970.586226675935	196.491063299373	348.856748791751	917.296876954283	396.639490015597	546.498219990802	794.132456188616	363.827182828368	605.983210429484	775.027365003700	255.065586602059	557.264013155006	572.043199591811	205.629719923465	528.344625148780	732.677162305232	130.109973571521	566.249713141627	623.280855726716	135.192468582694	596.637279734575	788.935863947046	27.967804496342	582.766404157705	848.987394158143	38.817577890594	398.962980435209	919.958034334102	36.068845836450	315.595187743095	1004.411184002544	96.983898334684	338.764743655790	1131.859630712130	42.091490138193	305.972766218644	831.314197950934	1093.168658944056	143.972765876168	903.962072084293	842.141370937064	140.546780269034	985.125598826621	1082.917576727580	695.218541941921	1202.131338827785	943.557617796314	672.389199586985	
92	45.587500000000	739.881939375643	1010.244824604303	435.572469753821	894.525629428059	1442.906961099823	259.221791943247	1009.893291010569	1369.471010816404	409.538590933799	939.232306992692	1434.893845401753	591.087666188881	889.428752550618	1497.870904063009	415.096017746946	968.993520025187	942.070595771945	542.004190365872	945.190008151411	963.693456883395	268.821715783560	1012.451934795965	740.962072437937	522.350066101726	938.358045531113	632.420818216520	590.642456190809	1019.461240970484	573.054020088443	515.701061800189	1010.801862642248	462.325012025400	537.589858299972	1005.270395125941	758.051364298547	300.422266634912	920.932017676446	635.857708123971	249.297175601357	1011.996430097495	564.642683528984	311.277600611940	1016.931023116569	494.914990392835	323.395331909832	992.833332078636	421.798790067470	319.071049392871	906.832387055871	302.551862878514	275.911988722840	964.278383706483	195.930434294430	348.499535806347	928.401345288073	398.609770469095	544.585019327982	804.567484981650	369.317155345038	604.793374866554	782.431602703912	260.906863156047	556.956856556002	579.280935201641	220.370639972903	529.079564092827	735.741656286730	135.484842530417	566.624389423319	626.633601521517	146.868065952323	597.219665740172	785.227031450530	27.105157306226	583.046617915455	841.446238607101	38.751340943257	398.892768223647	912.401452377596	36.000120133259	315.508326870507	996.910717702225	96.839896798725	338.740412774974	1124.353983105446	41.857441666906	305.916680911379	838.922956201915	1092.762319678867	139.064622914141	922.537588356069	845.007065834800	134.712574788090	975.858216231098	1080.788517434858	693.082250187375	1182.028324140016	924.972014976011	673.371952579942	
93	45.600000000000	739.139146647193	1009.935140784694	433.673656400637	894.465736918253	1442.907606700283	257.794098265969	1009.355756886865	1369.348083606283	408.369834864212	938.140826043914	1434.388248969770	589.910402941724	889.048079595664	1497.842629158233	413.668641469628	968.298097962759	942.194857257988	539.904190032432	944.594471817050	963.651489368509	266.894922450837	1016.913111165684	743.908003099283	519.280654081709	947.364671181917	633.736501997632	588.550157753814	1029.115058919438	576.323358451773	512.393964083809	1023.105973337172	464.517727369030	534.652706172185	1003.838537902725	757.260597282542	298.777885877870	918.610582289016	635.627302501285	247.876393522008	1008.933338799259	563.834460007232	310.072237568828	1013.257137345160	494.046360637992	322.377640044244	988.593427082442	420.942540627588	318.215960893374	901.637147635241	302.319566699541	275.242324635549	957.977857227918	195.387480309884	348.195413114051	939.575291121812	401.005435699119	542.468452442431	815.241592054546	374.759283458985	603.354795268617	790.516382361082	266.708365291877	556.306009829855	587.560047353621	233.870203744219	529.316987713667	740.120531466006	141.026768194851	566.693498039440	631.403971316275	157.857567540852	597.394980262740	783.358610510275	26.788969791599	583.080455175540	833.925553843579	38.708337326545	398.817069552580	904.866944128091	35.951565856463	315.422969627974	989.424905437813	96.720988297032	338.711280053940	1116.858158382596	41.658599986897	305.845792506289	846.781379296342	1092.474021720434	134.337326729121	941.345635483220	848.546412906885	129.081884184572	966.525638173264	1078.972218216009	691.133142727697	1160.325660299596	907.445504585687	674.213708028257	
